<svg width="18" height="19" viewBox="0 0 18 19" fill="none" xmlns="http://www.w3.org/2000/svg">
<g clip-path="url(#clip0_508_1704)">
<path d="M18 9.99583C18 14.962 13.9558 19.0056 8.99551 19.0003C4.0209 18.9946 -0.00217836 14.9657 -0.000487749 9.99358C0.00148463 5.0139 4.0209 0.995324 8.99777 0.995605C13.9701 0.996169 18.0005 5.02573 18 9.99583ZM8.99072 2.39655C4.80196 2.40839 1.38778 5.8299 1.40046 10.0051C1.41258 14.197 4.83098 17.6019 9.01242 17.5872C13.204 17.5728 16.592 14.1778 16.588 9.9933C16.5844 5.80087 13.1691 2.38557 8.99072 2.39655Z" fill="#BA886E"/>
<path d="M11.8971 6.05762L12.9072 7.06494C11.947 8.02295 10.9749 8.99336 10.0002 9.96545C10.9943 10.9595 11.9751 11.9401 12.9427 12.9071L11.9385 13.911L9.01263 10.9852L6.09746 13.9077C5.75934 13.5679 5.4339 13.243 5.09916 12.9071L8.00644 10.0024L5.09155 7.0886L6.06027 6.11989L8.94952 9.01026L11.8971 6.05762Z" fill="#BA886E"/>
</g>
<defs>
<clipPath id="clip0_508_1704">
<rect width="18.0005" height="18.0044" fill="white" transform="translate(-0.000488281 0.995605)"/>
</clipPath>
</defs>
</svg>
